<?xml version="1.0" encoding="utf-8"?>
<!-- Generator: Adobe Illustrator 21.1.0, SVG Export Plug-In . SVG Version: 6.00 Build 0)  -->
<svg version="1.1" id="Layer_1" xmlns="http://www.w3.org/2000/svg" xmlns:xlink="http://www.w3.org/1999/xlink" x="0px" y="0px"
	 viewBox="0 0 64 21.9" style="enable-background:new 0 0 64 21.9;" xml:space="preserve">
<style type="text/css">
	.st0{fill:#D1D8E1;}
	.st1{fill:#228FE0;}
</style>
<g>
	<g>
		<g>
			<g>
				<polygon class="st0" points="5.9,5.4 8.1,5.4 7,2.6 				"/>
			</g>
			<g>
				<path class="st1" d="M33.2,3c-0.2-0.1-0.5-0.1-0.8-0.1h-2v1.6h2c0.3,0,0.6,0,0.8-0.1s0.3-0.4,0.3-0.7C33.6,3.3,33.4,3.1,33.2,3z
					"/>
			</g>
			<g>
				<path class="st0" d="M54.6,0v1.2L54,0h-4.7v1.2L48.7,0h-6.4c-1.1,0-2,0.2-2.8,0.6V0H35v0.6C34.5,0.2,33.9,0,33.1,0H17l-1.1,2.5
					L14.8,0H9.7v1.2L9.1,0H4.8l-2,4.7L0.5,9.9h2.3h2.8l0.6-1.6h1.4l0.6,1.6H14V8.7l0.5,1.2h2.9l0.5-1.2v1.2h13.9V7.3H32
					c0.2,0,0.2,0,0.2,0.3v2.2h7.2V9.2c0.6,0.3,1.5,0.6,2.7,0.6h3l0.6-1.6h1.4l0.6,1.6h5.8V8.3l0.9,1.5h4.7V0C59.1,0,54.6,0,54.6,0z
					 M20.8,8.4h-1.7V2.9l-2.4,5.5h-1.5l-2.4-5.5v5.5H9.4L8.7,6.9H5.3L4.7,8.5H2.8l3-7.1h2.5l2.8,6.7V1.4h2.7L16,6.2l2-4.8h2.8V8.4z
					 M27.6,2.9h-3.9v1.3h3.8v1.4h-3.8V7h3.9v1.5H22V1.4h5.6V2.9z M35.1,5.8c0.2,0.4,0.3,0.7,0.3,1.3v1.4h-1.7V7.6c0-0.4,0-1-0.3-1.4
					c-0.3-0.3-0.6-0.3-1.2-0.3h-1.8v2.6h-1.7V1.4h3.8c0.9,0,1.5,0,2,0.3s0.8,0.8,0.8,1.6c0,1.1-0.7,1.7-1.2,1.9
					C34.6,5.3,34.9,5.6,35.1,5.8z M38.1,8.4h-1.7V1.3h1.7V8.4z M57.8,8.4h-2.4l-3.2-5.3v5.3h-3.4l-0.6-1.5h-3.5l-0.6,1.6h-1.9
					c-0.8,0-1.8-0.2-2.4-0.8c-0.6-0.6-0.9-1.4-0.9-2.7c0-1,0.2-2,0.9-2.8c0.5-0.6,1.4-0.8,2.5-0.8h1.6v1.5h-1.6
					c-0.6,0-0.9,0.1-1.3,0.4c-0.3,0.3-0.5,0.9-0.5,1.6c0,0.8,0.1,1.3,0.5,1.7C41.3,6.9,41.7,7,42.2,7h0.7l2.3-5.5h2.5l2.8,6.7V1.5
					H53l2.9,4.9V1.5h1.7v6.9H57.8z"/>
			</g>
			<g>
				<polygon class="st1" points="45.3,5.4 47.6,5.4 46.5,2.6 				"/>
			</g>
		</g>
		<g>
			<g>
				<polygon class="st1" points="28.3,19.8 28.3,14.1 25.7,16.9 				"/>
			</g>
			<g>
				<polygon class="st0" points="17.6,14.8 17.6,16.1 21.3,16.1 21.3,17.5 17.6,17.5 17.6,19 21.7,19 23.6,16.9 21.8,14.8 				"/>
			</g>
			<g>
				<path class="st1" d="M32.1,14.8H30v1.8h2.2c0.6,0,1-0.3,1-0.9C33.1,15.1,32.7,14.8,32.1,14.8z"/>
			</g>
			<g>
				<path class="st0" d="M63,16.5V12h-1.2h-3c-0.9,0-1.6,0.2-2.1,0.6V12h-4.6c-0.7,0-1.6,0.2-2,0.6V12H42v0.6
					c-0.6-0.5-1.7-0.6-2.2-0.6h-5.4v0.6c-0.5-0.5-1.7-0.6-2.3-0.6h-6l-1.4,1.5L23.4,12h-9v9.8h8.8l1.4-1.5l1.3,1.5h5.4v-2.3H32
					c0.7,0,1.6,0,2.3-0.3v2.7h4.5v-2.6H39c0.3,0,0.3,0,0.3,0.3v2.3h13.6c0.9,0,1.8-0.2,2.3-0.6v0.6h4.3c0.9,0,1.8-0.1,2.4-0.5l0,0
					c1-0.6,1.6-1.7,1.6-3C63.5,17.7,63.3,17,63,16.5z M32,18.1h-2v2.4h-3.2l-2-2.3l-2.1,2.3h-6.6v-7.1h6.7l2,2.3l2.1-2.3h5.3
					c1.3,0,2.8,0.4,2.8,2.3C34.9,17.7,33.5,18.1,32,18.1z M42,17.7c0.2,0.3,0.3,0.7,0.3,1.3v1.4h-1.7v-0.9c0-0.4,0-1.1-0.3-1.4
					c-0.2-0.3-0.6-0.3-1.2-0.3h-1.8v2.6h-1.7v-7.1h3.8c0.8,0,1.5,0,2,0.3s0.9,0.8,0.9,1.6c0,1.1-0.7,1.7-1.2,1.9
					C41.6,17.3,41.9,17.5,42,17.7z M48.9,14.8H45v1.3h3.8v1.4H45v1.4h3.9v1.5h-5.6v-7.1h5.6V14.8z M53.1,20.4h-3.2v-1.5h3.2
					c0.3,0,0.5,0,0.7-0.2c0.1-0.1,0.2-0.3,0.2-0.5s-0.1-0.4-0.2-0.5c-0.1-0.1-0.3-0.2-0.6-0.2c-1.6-0.1-3.5,0-3.5-2.2
					c0-1,0.6-2.1,2.4-2.1h3.3v1.7h-3.1c-0.3,0-0.5,0-0.7,0.1s-0.2,0.3-0.2,0.5c0,0.3,0.2,0.4,0.4,0.5s0.4,0.1,0.6,0.1h0.9
					c0.9,0,1.5,0.2,1.9,0.6c0.3,0.3,0.5,0.8,0.5,1.5C55.7,19.7,54.8,20.4,53.1,20.4z M61.7,19.7c-0.4,0.4-1.1,0.7-2.1,0.7h-3.2v-1.5
					h3.2c0.3,0,0.5,0,0.7-0.2c0.1-0.1,0.2-0.3,0.2-0.5s-0.1-0.4-0.2-0.5c-0.1-0.1-0.3-0.2-0.6-0.2c-1.6-0.1-3.5,0-3.5-2.2
					c0-1,0.6-2.1,2.4-2.1h3.3v1.7h-3c-0.3,0-0.5,0-0.7,0.1S58,15.3,58,15.5c0,0.3,0.1,0.4,0.4,0.5c0.2,0.1,0.4,0.1,0.6,0.1h0.9
					c0.9,0,1.5,0.2,1.9,0.6c0.1,0,0.1,0.1,0.1,0.1c0.3,0.4,0.4,0.9,0.4,1.4C62.3,18.8,62.1,19.3,61.7,19.7z"/>
			</g>
			<g>
				<path class="st1" d="M40.2,15c-0.2-0.1-0.5-0.1-0.8-0.1h-2v1.6h2c0.3,0,0.6,0,0.8-0.1s0.3-0.4,0.3-0.7
					C40.6,15.3,40.4,15.1,40.2,15z"/>
			</g>
		</g>
	</g>
	<g>
		<g>
			<g>
				<path class="st0" d="M33.2,3c-0.2-0.1-0.5-0.1-0.8-0.1h-2v1.6h2c0.3,0,0.6,0,0.8-0.1s0.3-0.4,0.3-0.7C33.6,3.3,33.4,3.1,33.2,3z
					"/>
			</g>
			<g>
				<polygon class="st0" points="45.3,5.4 47.6,5.4 46.5,2.6 				"/>
			</g>
		</g>
		<g>
			<g>
				<polygon class="st0" points="28.3,19.8 28.3,14.1 25.7,16.9 				"/>
			</g>
			<g>
				<path class="st0" d="M32.1,14.8H30v1.8h2.2c0.6,0,1-0.3,1-0.9C33.1,15.1,32.7,14.8,32.1,14.8z"/>
			</g>
			<g>
				<path class="st0" d="M40.2,15c-0.2-0.1-0.5-0.1-0.8-0.1h-2v1.6h2c0.3,0,0.6,0,0.8-0.1s0.3-0.4,0.3-0.7
					C40.6,15.3,40.4,15.1,40.2,15z"/>
			</g>
		</g>
	</g>
	<g>
		<polygon class="st0" points="31.4,20.2 30,18.7 30,20.4 26.7,20.4 24.7,18.1 22.5,20.4 15.9,20.4 15.9,13.4 22.6,13.4 24.7,15.7 
			25.7,14.5 23.2,12 14.4,12 14.4,21.8 23.2,21.8 24.7,20.3 26,21.8 31.4,21.8 		"/>
	</g>
	<g>
		<g>
			<polygon class="st0" points="21,9.8 19.7,8.4 19.1,8.4 19.1,7.8 17.6,6.3 16.6,8.4 15.2,8.4 12.8,2.9 12.8,8.4 9.4,8.4 8.7,6.9 
				5.3,6.9 4.6,8.4 2.8,8.4 5.8,1.4 8.3,1.4 11.1,8.1 11.1,1.4 12.6,1.4 11.2,0 9.7,0 9.7,1.2 9.2,0 4.8,0 2.8,4.7 0.5,9.8 2.8,9.8 
				5.7,9.8 6.3,8.3 7.7,8.3 8.4,9.8 14,9.8 14,8.6 14.5,9.8 17.4,9.8 17.9,8.6 17.9,9.8 			"/>
		</g>
		<g>
			<polygon class="st0" points="16.4,5.2 14.8,3.6 16,6.2 			"/>
		</g>
	</g>
	<g>
		<g>
			<path class="st0" d="M61.9,21.3c0.9-0.6,1.5-1.6,1.6-2.7l-1.4-1.4c0.1,0.3,0.2,0.6,0.2,1c0,0.6-0.2,1.1-0.6,1.5
				c-0.4,0.4-1.1,0.7-2.1,0.7h-3.2v-1.5h3.2c0.3,0,0.5,0,0.7-0.2c0.1-0.1,0.2-0.3,0.2-0.5s-0.1-0.4-0.2-0.5
				c-0.1-0.1-0.3-0.2-0.6-0.2c-1.6-0.1-3.5,0-3.5-2.2c0-1,0.6-1.9,2.1-2.1l-1.1-1.1c-0.2,0.1-0.3,0.2-0.4,0.2v-0.6h-4.6
				c-0.7,0-1.6,0.2-2,0.6v-0.6H42v0.6c-0.6-0.5-1.7-0.6-2.2-0.6h-5.4v0.6c-0.5-0.5-1.7-0.6-2.3-0.6h-6l-1.4,1.5l-1.3-1.5h-1.1l3,3
				l1.5-1.6h5.3c1.3,0,2.8,0.4,2.8,2.3c0,2-1.4,2.4-2.9,2.4h-2v1.5l1.5,1.5v-1.5H32c0.7,0,1.6,0,2.3-0.3v2.7h4.5v-2.6H39
				c0.3,0,0.3,0,0.3,0.3v2.3h13.6c0.9,0,1.8-0.2,2.3-0.6v0.6h4.3C60.3,21.8,61.2,21.7,61.9,21.3L61.9,21.3z M42,17.7
				c0.2,0.3,0.3,0.7,0.3,1.3v1.4h-1.7v-0.9c0-0.4,0-1.1-0.3-1.4c-0.2-0.3-0.6-0.3-1.2-0.3h-1.8v2.6h-1.7v-7.1h3.8c0.8,0,1.5,0,2,0.3
				s0.9,0.8,0.9,1.6c0,1.1-0.7,1.7-1.2,1.9C41.6,17.3,41.9,17.5,42,17.7z M48.9,14.8H45v1.3h3.8v1.4H45v1.4h3.9v1.5h-5.6v-7.1h5.6
				V14.8z M53.1,20.4h-3.2v-1.5h3.2c0.3,0,0.5,0,0.7-0.2c0.1-0.1,0.2-0.3,0.2-0.5s-0.1-0.4-0.2-0.5c-0.1-0.1-0.3-0.2-0.6-0.2
				c-1.6-0.1-3.5,0-3.5-2.2c0-1,0.6-2.1,2.4-2.1h3.3v1.7h-3.1c-0.3,0-0.5,0-0.7,0.1s-0.2,0.3-0.2,0.5c0,0.3,0.2,0.4,0.4,0.5
				s0.4,0.1,0.6,0.1h0.9c0.9,0,1.5,0.2,1.9,0.6c0.3,0.3,0.5,0.8,0.5,1.5C55.7,19.7,54.8,20.4,53.1,20.4z"/>
		</g>
		<g>
			<path class="st0" d="M57.9,15.5c0,0.3,0.1,0.4,0.4,0.5c0.2,0.1,0.4,0.1,0.6,0.1h0.9c0.6,0,1,0.1,1.4,0.3l-1.5-1.5h-0.9
				c-0.3,0-0.5,0-0.7,0.1C58,15.1,57.9,15.3,57.9,15.5z"/>
		</g>
	</g>
	<g>
		<g>
			<polygon class="st0" points="48.9,4 50.6,8.1 50.6,5.7 			"/>
		</g>
		<g>
			<path class="st0" d="M31.8,7.3H32c0.2,0,0.2,0,0.2,0.3v2.2h7.2V9.2c0.6,0.3,1.5,0.6,2.7,0.6h3l0.6-1.6h1.4l0.6,1.6h5.8v-1
				l-1.4-1.4v1.1h-3.4l-0.5-1.6h-3.5l-0.6,1.6h-1.9c-0.8,0-1.8-0.2-2.4-0.8c-0.6-0.6-0.9-1.4-0.9-2.7c0-1,0.2-2,0.9-2.8
				c0.5-0.6,1.4-0.8,2.5-0.8h1.6v1.5h-1.6c-0.6,0-0.9,0.1-1.3,0.4c-0.3,0.3-0.5,0.9-0.5,1.6c0,0.8,0.1,1.3,0.5,1.7
				C41.3,6.9,41.7,7,42.2,7h0.7l2.3-5.5h1l-1.4-1.4h-2.6c-1.1,0-2,0.2-2.8,0.6V0.1H35v0.6c-0.5-0.4-1.1-0.6-1.9-0.6H17l-1.1,2.5
				l-1.1-2.5h-4.4l1.4,1.4h2l1.7,3.7l0.6,0.6l1.8-4.4h2.8v7.1H19V3l-1.7,4l2.9,2.9h11.5L31.8,7.3z M36.4,1.4h1.7v7.1h-1.7V1.4z
				 M27.6,2.9h-3.9v1.3h3.8v1.4h-3.8V7h3.9v1.5H22V1.4h5.6V2.9z M30.4,8.4h-1.7V1.3h3.8c0.9,0,1.5,0,2,0.3s0.8,0.8,0.8,1.6
				c0,1.1-0.7,1.7-1.2,1.9c0.4,0.1,0.7,0.4,0.8,0.6c0.2,0.4,0.3,0.7,0.3,1.3v1.4h-1.7V7.5c0-0.4,0-1-0.3-1.4c-0.1-0.2-0.4-0.2-1-0.2
				h-1.8C30.4,5.9,30.4,8.4,30.4,8.4z"/>
		</g>
	</g>
</g>
</svg>
